<svg width="14.16pt" height="12pt" version="1.1" viewBox="0 -36 14.16 12" xmlns="http://www.w3.org/2000/svg">
 <g transform="matrix(.017045 0 0 .017045 4.425 -32.25)" fill="#fefefe" stroke-width="58.667">
  <path d="m216.48 0h-179.52c-20.403.023203-36.937 16.557-36.96 36.96v190.08c.023203 20.403 16.557 36.937 36.96 36.96h179.52c2.9159 0 5.28-2.3641 5.28-5.28v-253.44c0-2.9159-2.3641-5.28-5.28-5.28zm-5.28 190.08h-158.4v-179.52h158.4zm-200.64 11.089v-164.21c.01805-14.574 11.826-26.382 26.4-26.4h5.28v179.52h-5.28c-1.2684 0-2.5343.067-3.7976.19593-.4486.0464-.87398.13665-1.3123.2011-.79922.11086-1.5855.20367-2.377.36867-.52852.1057-1.0184.26297-1.5314.39188-.67547.17273-1.3612.31968-2.0264.52593-.52852.17016-1.057.39703-1.6113.59297-.5543.19336-1.2143.41508-1.7995.66516-.58781.2475-1.057.52851-1.6165.78117-.55945.25266-1.0983.52852-1.6268.79664-.52852.2707-1.0545.62906-1.5572.95133-.50273.32226-1.0132.59555-1.5005.92297-.48469.32742-.98226.73476-1.4721 1.1034-.49242.37125-.94102.68063-1.3845 1.057-.44344.37382-.90234.81211-1.3561 1.2298-.45375.41766-.86625.77086-1.2788 1.1834-.0464.0567-.1057.12117-.15211.14695zm26.4 52.271c-14.569-.0258-26.374-11.831-26.4-26.4.01804-14.574 11.826-26.382 26.4-26.4h174.24v21.12h-174.24v10.56h174.24v21.12z"/>
  <path d="m73.92 105.6h116.16c2.9159 0 5.28-2.3641 5.28-5.28v-52.8c0-2.9159-2.3641-5.28-5.28-5.28h-116.16c-2.9159 0-5.28 2.3641-5.28 5.28v52.8c0 2.9159 2.3641 5.28 5.28 5.28zm5.28-52.8h105.6v42.24h-105.6z"/>
  <path d="m309.97 33.227-31.68-31.68c-2.0625-2.0599-5.4038-2.0599-7.4662 0l-31.68 31.68c-.99.99-1.5469 2.3332-1.5469 3.7331v190.08c0 20.414 16.546 36.96 36.96 36.96s36.96-16.546 36.96-36.96v-190.08c0-1.3999-.55688-2.7431-1.5469-3.7331zm-35.413-20.481 18.934 18.934h-37.868zm-5.28 29.494v163.68h-21.12v-163.68zm10.56 0h21.12v163.68h-21.12zm-5.28 211.2c-14.574-.018-26.382-11.826-26.4-26.4v-10.56h52.8v10.56c-.018 14.574-11.826 26.382-26.4 26.4z"/>
 </g>
</svg>
